# xmcd
#
# Track frame offsets:
#  150
#  17057
#  26857
#  39762
#  49305
#  62177
#  73082
#  83572
#
# Disc length: 1275 seconds
#
# Revision: 0
# Processed by: cddbd v1.4PL0 Copyright (c) Steve Scherf et al.
# Submitted via: AltoMP3_Maker 3.0
#
DISCID=6504f908
DTITLE=Various Artist - Country Duets
DYEAR=1900
DGENRE=
TTITLE0=Don't Cry Joni
TTITLE1=I've Got Five Dollars And It's Saturday Night
TTITLE2=Don't Let Me Cross Over
TTITLE3=Wish I didn't Have To Miss You
TTITLE4=Tennessee Birdwalk
TTITLE5=Tennessee Waltz
TTITLE6=Dear John Letter
TTITLE7=40 Miles From Poplar Bluff
EXTD=
EXTT0=
EXTT1=
EXTT2=
EXTT3=
EXTT4=
EXTT5=
EXTT6=
EXTT7=
PLAYORDER=
